<svg xmlns="http://www.w3.org/2000/svg" width="17.706" height="11.943" viewBox="0 0 17.706 11.943">
  <path id="Icon_material-multiline-chart" data-name="Icon material-multiline-chart" d="M20.706,9.2,19.458,7.952l-2.523,2.842A9.529,9.529,0,0,0,9.737,7.5,10.145,10.145,0,0,0,3,10.156l1.257,1.257a8.312,8.312,0,0,1,5.48-2.142,7.781,7.781,0,0,1,5.993,2.868l-2.55,2.868L9.64,11.466,3,18.115l1.328,1.328L9.64,14.122l3.541,3.541,3.585-4.028a10.864,10.864,0,0,1,1.275,4.028h1.779a12.521,12.521,0,0,0-1.806-5.436Z" transform="translate(-3 -7.5)"/>
</svg>
