<svg xmlns="http://www.w3.org/2000/svg" width="13.92" height="13.911" viewBox="0 0 13.92 13.911">
  <g id="Group_2931" data-name="Group 2931" transform="translate(-1784.254 -608.048)">
    <path id="Path_63" data-name="Path 63" d="M29.357,21.488a.29.29,0,0,0-.283.282v3.181a2.037,2.037,0,0,1-2.034,2.033H19.28a2.037,2.037,0,0,1-2.034-2.033V17.2a2.037,2.037,0,0,1,2.034-2.033h3.183a.282.282,0,1,0,0-.565H19.28a2.583,2.583,0,0,0-2.58,2.578v7.754a2.583,2.583,0,0,0,2.58,2.578h7.76a2.583,2.583,0,0,0,2.58-2.578V21.771A.274.274,0,0,0,29.357,21.488Z" transform="translate(1768.054 593.948)" fill="none" stroke="#043d4e" stroke-width="1"/>
    <path id="Path_64" data-name="Path 64" d="M43.4,20.47l-.64,2.315a.269.269,0,0,0,.188.339.206.206,0,0,0,.151,0l2.3-.64a.472.472,0,0,0,.132-.075L50.249,17.7A1.468,1.468,0,0,0,49.2,15.2h-.019a1.365,1.365,0,0,0-1.016.433l-4.705,4.705A.918.918,0,0,0,43.4,20.47Zm5.176-4.46a.915.915,0,0,1,1.28.094.891.891,0,0,1,0,1.186l-4.517,4.517-1.28-1.28Zm-3.745,6.1-1.449.376.414-1.412Z" transform="translate(1746.917 593.461)" fill="none" stroke="#043d4e" stroke-width="1"/>
  </g>
</svg>
