<svg xmlns="http://www.w3.org/2000/svg" width="40" height="40" viewBox="0 0 40 40">
  <g id="Group_2911" data-name="Group 2911" transform="translate(-1817 -133)">
    <g id="Group_2839" data-name="Group 2839" transform="translate(36.916 -0.24)">
      <path id="more_horiz_FILL0_wght400_GRAD0_opsz48" d="M15.958,27.515a2.945,2.945,0,1,1,2.1-.863A2.852,2.852,0,0,1,15.958,27.515Zm11.76,0a2.945,2.945,0,1,1,2.1-.863A2.852,2.852,0,0,1,27.718,27.515Zm11.76,0a2.945,2.945,0,1,1,2.1-.863A2.852,2.852,0,0,1,39.478,27.515Z" transform="translate(1775.484 180.676) rotate(-90)" fill="#1c505f"/>
    </g>
    <g id="Rectangle_954" data-name="Rectangle 954" transform="translate(1817 133)" fill="none" stroke="#1c505f" stroke-width="1">
      <rect width="40" height="40" stroke="none"/>
      <rect x="0.5" y="0.5" width="39" height="39" fill="none"/>
    </g>
  </g>
</svg>
