<svg xmlns="http://www.w3.org/2000/svg" width="21.778" height="21.492" viewBox="0 0 21.778 21.492">
  <g id="Group_2577" data-name="Group 2577" transform="translate(-148.008 -301)">
    <g id="Group_2575" data-name="Group 2575" transform="translate(147.908 322.992)">
      <path id="Path_3420" data-name="Path 3420" d="M4.508-21.992a1.182,1.182,0,0,0-.819.337L.374-18.395a1.206,1.206,0,0,0,0,1.534L3.689-13.6l1.653-1.626-2.48-2.447,1.653-1.534L6.91-16.861l1.653-1.534-3.314-3.26A.95.95,0,0,0,4.508-21.992Zm11.324,2.784,3.314,3.16L6.083-3.284,2.862-6.452l2.48-2.355L6.91-7.265,8.563-8.9,6.91-10.433l1.653-1.626,1.653,1.626,1.568-1.626L10.216-13.6l1.568-1.626L13.437-13.6,15.1-15.227l-1.661-1.634Zm2.488,10.4L16.658-7.265l2.581,2.531v1.626H17.672L15.1-5.639,13.437-4.013l3.041,2.991h4.874V-5.816ZM15.878-21.992a1.121,1.121,0,0,0-.78.337L.468-7.265a1.13,1.13,0,0,0,0,1.626L5.342-.845A.948.948,0,0,0,6.091-.5,1.171,1.171,0,0,0,6.91-.845L21.532-15.227a1.139,1.139,0,0,0,0-1.634l-4.874-4.794A1.121,1.121,0,0,0,15.878-21.992Z" fill="#6f7071" fill-rule="evenodd"/>
    </g>
  </g>
</svg>
