<?xml version="1.0" encoding="utf-8"?>
<svg version="1.1" id="Layer_1" xmlns="http://www.w3.org/2000/svg" xmlns:xlink="http://www.w3.org/1999/xlink" x="0px" y="0px"
	 viewBox="0 0 3759.083 5000" enable-background="new 0 0 3759.083 5000" xml:space="preserve">
<path d="M1042.12,3331.141c-39.091-28.414-142.755-105.973-157.784-152.035c-11.107-34.044-68.418-69.613-76.846-215.687
	c-5.484-95.05-23.651-180.857,10.318-293.759c0.89-2.959,1.385-6.433,3.269-8.64c42.272-49.527,56.157-115.325,95.785-166.47
	c58.521-75.53,88.662-64.608,100.988-112.49c9.073-35.247,16.809-60.573,112.097-223.958
	c31.211-53.516,79.864-75.555,117.794-168.85c38.326-94.268,40.202-37.008,91.828-143.037
	c24.102-49.501,48.059-98.854,90.096-136.746c14.691-13.243,15.989-34.611,25.393-51.33
	c75.19-133.663,74.395-190.406,201.768-274.532c40.434-26.706,13.152-62.162,48.052-126.883c3.502-6.494,2.278-9.439-1.766-13.865
	c-42.354-46.354-77.416-98.42-116.194-147.51c-49.593-62.783-235.128-210.781-284.581-222.461
	c-5.832-1.378-10.566-5.56-14.622-10.69c-75.183-95.117-110.196-86.795-201.569-184.825c-33.154-35.569-53.469-23.438-63.089-41.822
	c-13.182-25.192-38.705-39.966-54.848-62.824c-1.204-1.704-3.24-3.541-5.16-3.912c-41.443-7.999-80.084-32.318-125.117-20.233
	c-10.034,2.693-22.659,2.807-32.159-0.875c-56.339-21.842-96.671,9.606-147.024-8.759c-66.077-24.099-98.678-9.98-145.145-31.776
	c-30.284-14.206-81.279,7.449-78.952-37.052c1.946-37.207,10.179-42.868,57.814-54.535c21.253-5.205,42.566-4.722,65.675,1.3
	c27.103,7.062,57.23,2.658,86.048,2.861c4.749,0.033,9.703-2.898,8.608-8.37c-2.833-14.16-3.629-32.674-16.965-38.578
	c-31.435-13.917-55.761-41.341-91.492-46.707c-61.167-9.186-106.587-17.818-238.755-58.494
	c-7.815-2.405-63.095-61.503-10.375-74.825c75.815-19.157,74.762,4.063,87.022,2.034c31.378-5.192,60.018,12.995,91.353,10.25
	c16.446-1.441,32.215,4.595,46.431,13.478c20.737,12.957,43.969,8.711,69.318,14.455c-6.384-12.303-13.525-9.398-18.964-9.715
	c-37.565-2.187-35.546-14.59-166.116-45.632c-23.856-5.672-44.873-18.681-69.631-22.705c-15.527-2.524-30.189-48.864-20.079-62.404
	c10.461-14.01,26.913-18.656,45.461-12.253c15.701,5.42,32.29,2.3,48.591,1.842c0-13.075-17.447-33.453,3.453-56.187
	c16.033-17.441,32.108-4.608,45.912-0.876c110.246,29.805,103,26.553,103.455,11.03c1.094-37.258,4.303-38.145,42.752-34.875
	c85.718,7.291,140.385,71.168,188.685,77.7c68.532,9.268,42.754,68.245,111.323,95.275c23.442,9.241,38.425,31.642,60.58,44.486
	c27.797,16.114,59.567,23.072,86.414,40.845c17.476,11.569,25.157-23.154,85.401,13.028c77.417,46.496,76.087,24.151,110.791,85.307
	c24.715,43.552,60.203,43.836,98.878,99.297c10.935,15.681,54.347,30.912,77.395,65.285c9.965,14.863,33.323,20.004,46.618,33.512
	c43.755,44.459,105.575,64.655,147.305,110.685c35.09,38.706,58.627,40.923,62.529,49.422c25.271,55.042,94.321,60.83,147.11,107.64
	c147.113,130.448,120.405,107.555,177.595,145.878c90.499,60.641,122.886,131.136,176.868,139.667
	c1.449,0.229,3.085,1.099,4.071,2.183c30.589,33.63,75.375,27.593,113.297,40.701c44.315,15.318,67.368-42.084,121.408,15.659
	c45.442,48.556,86.928,5.24,120.818,47.678c7.245,9.072,15.347,3.216,23.074-0.323c34.753-15.917,70.185-17.546,106.71-6.189
	c19.98,6.212,28.572,28.542,46.138,34.268c16.518,5.384,34.569-10.641,53.646-6.4c15.959,3.547,37.877,32.036,41.195,54.956
	c14.64,101.107,47.397-3.92,118.386,66.876c53.062,52.918,96.111,42.689,122.843,67.069c32.077,29.255,66.686,55.606,77.823,101.298
	c11.371,46.653,58.44,48.882,26.646,59.18c-6.936,2.247-1.458,36.338,7.382,40.835c13.277,6.755,9.768,6.564,35.406,109.751
	c20.414,82.164,54.318,68.772,51.232,84.644c-7.9,40.638-3.614,84.068-28.989,120.72c-17.603,25.426-44.461,40.666-65.441,62.17
	c-28.065,28.767-43.224,17.217-109.48,25.545c-56.577,7.112-60.719-37.989-101.211,4.308c-25.863,27.016-54.191,49.462-94.542,46.58
	c-10.115-0.723-10.883,7.028-14.596,12.239c-23.76,33.347-32.406,35.57-64.599,18.357c-23.996-12.83-47.698-20.74-75.046-8.548
	c-22.126,9.864-67.489-5.984-107.47,5.117c9.836,16.438,36.211-1.412,63.841,32.442c21.309,26.109,50.766,2.866,130.031,43.448
	c23.616,12.091,50.115,10.395,75.241,13.192c58.008,6.459,112.188,28.067,168.916,39.328c15.784,3.133,32.011,10.963,41.746,24.201
	c18.593,25.284,46.726,20.191,71.509,25.666c14.752,3.259,29.04-32.014,51.956-51.155c113.277-94.619,125.79-73.906,139.741-98.55
	c4.103-7.247,14.15-0.768,18.137,3.669c8.983,9.997,17.548,14.844,32.151,13.226c40.67-4.508,34.535,47.802,2.323,45.667
	c-30.362-2.013-47.225,18.474-65.083,39.817c34.633,9.482,70.74,10.493,106.05,16.112c46.003,7.32,44.342,51.044,14.235,51.156
	c-23.292,0.087-46.887,0.086-69.809-3.421c-26.435-4.045-50.553,5.292-75.758,8.016c-6.539,0.707-9.74,3.707-9.878,10.388
	c-0.174,8.458,5.343,7.502,10.999,7.458c49.201-0.381,95.433,19.262,144.451,21.33c17.5,0.738,26.25,15.082,21.948,31.629
	c-6.612,25.437-17.66,17.844-171.181,0.642c-11.708-1.312-16.666,4.374-17.094,15.116c94.599,22.716,134.365,3.302,132.718,40.736
	c-0.798,18.14-13.574,18.016-26.122,18.726c-136.924,7.739-114.83-28.804-188.022,13.979c-18.093,10.576-38.749,14.34-56.589,26.091
	c-31.979,21.063-102.84-38.642-145.622-14.055c-11.968,6.878,0.39-1.053-202.679-23.783c-96.61-10.814-190.09-38.269-286.786-46.771
	c-12.078-1.062-23.589-4.975-35.016-11.184c-173.313-94.162-174.081-126.168-202.482-104.145
	c-76.328,59.191,0.504,102.807-50.664,190.48c-17.713,30.349-18.423,71.825-81.439,80.999c-73.843,10.75-78.01-24.579-160.326-4.435
	c-22.575,5.525-84.364-5.508-185.543,70.888c-5.072,3.83-11.979,7.092-4.064,13.939c21.648,18.726,34.109,46.897,61.481,59.708
	c92.799,43.436,83.091,60.772,147.338,129.51c174.899,187.125,136.101,162.001,178.138,225.44
	c29.573,44.63,373.517,52.977,471.2,269.259c19.773,43.779,7.439,71.208,46.48,139.347c14.82,25.866,20.27,52.944,18.226,82.769
	c-1.862,27.171,10.051,52.539,15.844,78.667c19.181,86.512,40.205,122.35,123.701,288.421
	c31.08,61.817,51.447,44.476,64.722,113.726c12.666,66.071,58.898,60.792,71.032,135.374c2.387,14.669,11.97,23.999,18.796,35.723
	c18.013,30.937,48.308,46.059,73.692,67.808c74.909,64.182,24.464,105.264,56.609,105.51c7.626,0.058,15.322,4.235,22.832,3.814
	c20.897-1.171,30.591,11.803,33.759,28.628c6.775,35.983,35.897,51.218,6.061,69.574c-9.034,5.558-12.141,6.077-1.329,18.441
	c70.437,80.545,122.076-39.541,158.577,10.004c29.503,40.046-30.948,7.703-70.186,47.029c40.524,17.565,73.479,49.27,118.524,57.382
	c12.148,2.188,17.183,16.737,27.614,20.723c95.621,36.537,94.976,63.167,259.525,61.514c36.907-0.371,56.394,22.133,71.784,50.626
	c5.786,10.711,0.299,21.288-5.432,30.785c-42.448,70.342-136.43,129.009-209.157,166.757
	c-188.949,98.074-237.877,33.177-435.949,38.981c-144.959,4.248-255.313,5.174-229.301-136.761
	c8.01-43.708-21.885-160.632-16.434-219.978c4.122-44.88-51.355-47.85-48.251-104.886c0.3-5.517-0.075-13.68-5.873-13.715
	c-19.457-0.117-18.996-17.231-25.99-27.866c-71.028-108.006-156.261-265.258-156.734-265.545
	c-34.542-21.003-43.745-59.976-63.99-90.773c-16.008-24.352-85.182-119.876-114.102-175.84
	c-15.069-29.161-11.355,18.888-117.442,27.584c-270.789,22.196-271.261-62.568-562.108-125.863
	c-155.789-33.904-140.822-45.745-326.145-65.023c-58.087-6.042-115.933-14.273-173.109-26.304
	c-18.612-3.916-38.473,1.379-55.553-4.526c-48.464-16.756-99.434-11.024-148.802-19.804c-39.696-7.06-80.379-14.276-121.697-6.773
	c-47.634,8.649-93.685-34.589-121.141-39.444c-20.169-3.566-26.723,12.346-43.973,0.404c-35.034-24.254-32.694,29.679-98.427,16.963
	c-40.818-7.896-2.149,38.062-40.996,37.078c-30.785-0.779-18.285,27.268-103.34,19.215c-31.05-2.941-36.786,19.163-52.98-23.691
	c-27.039,24.077-68.714,8.547-81.96,14.761c-50.975,23.912-78.571-5.206-144.285,44.554c-31.419,23.792-68.25,40.447-95.505,69.652
	c-57.384,61.488-125.955,82.079-151.918,1.748c-41.981-129.892,143.745-452.82,295.774-521.322
	c6.529-2.942,10.306-11.454,16.368-16.06c246.433-187.234,282.514-253.832,375.055-278.071
	c65.766-17.226,101.142,56.086,106.272,95.644c1.84,14.19,15.294,20.768,23.604,30.434
	c68.059,79.161,70.449,125.979,101.917,118.661c14.838-3.451,29.157,3.127,43.612,5.423
	C992.777,3307.982,986.014,3362.368,1042.12,3331.141z"/>
</svg>
