<svg xmlns="http://www.w3.org/2000/svg" width="13.6" height="16" viewBox="0 0 13.6 16">
  <path id="contact_support_FILL0_wght400_GRAD0_opsz48" d="M13.9,20l-.2-2.2h-.8a6.649,6.649,0,0,1-4.88-2.02A6.649,6.649,0,0,1,6,10.9,6.632,6.632,0,0,1,8.03,6.02,6.705,6.705,0,0,1,12.94,4a6.7,6.7,0,0,1,2.63.51,6.392,6.392,0,0,1,2.11,1.43,6.669,6.669,0,0,1,1.41,2.17,7.159,7.159,0,0,1,.51,2.73,9.835,9.835,0,0,1-1.51,5.17A11.173,11.173,0,0,1,13.9,20Zm-.96-4.46a.751.751,0,1,0-.54-.22A.734.734,0,0,0,12.94,15.54Zm-.54-2.72h1a1.8,1.8,0,0,1,.17-.83,3.99,3.99,0,0,1,.71-.87,3.894,3.894,0,0,0,.76-.99,2.179,2.179,0,0,0,.22-.97,1.953,1.953,0,0,0-.61-1.48,2.268,2.268,0,0,0-1.63-.58,2.63,2.63,0,0,0-2.48,1.64l.92.38a1.637,1.637,0,0,1,.61-.77,1.613,1.613,0,0,1,.89-.25,1.4,1.4,0,0,1,.94.29.962.962,0,0,1,.34.77,1.559,1.559,0,0,1-.22.77,5.217,5.217,0,0,1-.78.97,3.564,3.564,0,0,0-.69.9,2.649,2.649,0,0,0-.15,1.02Zm2.5,3.78v1.24a10.078,10.078,0,0,0,2.57-3.25,8.354,8.354,0,0,0,.93-3.75,5.554,5.554,0,0,0-1.55-4.06A5.248,5.248,0,0,0,12.94,5.2,5.538,5.538,0,0,0,8.87,6.87,5.492,5.492,0,0,0,7.2,10.9a5.492,5.492,0,0,0,1.67,4.03A5.492,5.492,0,0,0,12.9,16.6ZM12.8,11.52Z" transform="translate(-6 -4)" fill="#043d4e"/>
</svg>
