<svg id="Group_3732" data-name="Group 3732" xmlns="http://www.w3.org/2000/svg" xmlns:xlink="http://www.w3.org/1999/xlink" width="18" height="15.986" viewBox="0 0 18 15.986">
  <defs>
    <clipPath id="clip-path">
      <rect id="Rectangle_1014" data-name="Rectangle 1014" width="18" height="15.986" fill="none"/>
    </clipPath>
  </defs>
  <g id="Group_3731" data-name="Group 3731" clip-path="url(#clip-path)">
    <path fill-opacity="0.6" id="Path_3529" data-name="Path 3529" d="M18,188.494c-.042.095-.077.193-.128.283a.987.987,0,0,1-.9.518q-.589.009-1.177,0a.163.163,0,0,0-.185.133,3.6,3.6,0,0,1-3.832,2.5A3.525,3.525,0,0,1,8.689,189.5a.26.26,0,0,0-.3-.2q-3.655.007-7.311,0a1.008,1.008,0,0,1-1.061-.811,1,1,0,0,1,.9-1.185c.082,0,.164,0,.246,0q3.629,0,7.258,0a.213.213,0,0,0,.246-.173,3.651,3.651,0,0,1,6.932.015.19.19,0,0,0,.219.158c.369-.009.738,0,1.107,0a.991.991,0,0,1,1.039.769.184.184,0,0,0,.028.042Zm-4.2-.226a1.659,1.659,0,1,0-1.642,1.687,1.661,1.661,0,0,0,1.642-1.687" transform="translate(0 -175.962)"/>
    <path fill-opacity="0.6" id="Path_3530" data-name="Path 3530" d="M18.018,3.846a2.678,2.678,0,0,1-.189.39.981.981,0,0,1-.86.423q-1.88,0-3.761,0c-1.213,0-2.425,0-3.638,0a.193.193,0,0,0-.223.155A3.652,3.652,0,0,1,2.4,4.795a.172.172,0,0,0-.2-.14c-.386.008-.773.006-1.16,0a1,1,0,1,1,0-2c.381-.006.762-.006,1.142,0A.194.194,0,0,0,2.412,2.5,3.569,3.569,0,0,1,5.35.045,3.624,3.624,0,0,1,9.33,2.462a.245.245,0,0,0,.282.2c2.378-.006,4.757.006,7.135-.011a1.152,1.152,0,0,1,1.271.809Zm-13.8-.228A1.661,1.661,0,1,0,5.929,2a1.668,1.668,0,0,0-1.71,1.618" transform="translate(-0.018 0.001)"/>
  </g>
</svg>
